<svg width="23" height="14" viewBox="0 0 23 14" fill="none" xmlns="http://www.w3.org/2000/svg">
<path opacity="0.4" d="M21.3614 7.82392L10.7639 7.82392C10.2736 7.82392 9.87569 7.42603 9.87569 6.93576C9.87569 6.4455 10.2736 6.04761 10.7639 6.04761L21.3614 6.04761C21.8516 6.04761 22.2495 6.4455 22.2495 6.93576C22.2495 7.42603 21.8516 7.82392 21.3614 7.82392" fill="#F8F8F8"/>
<mask id="mask0" mask-type="alpha" maskUnits="userSpaceOnUse" x="0" y="0" width="12" height="14">
<path fill-rule="evenodd" clip-rule="evenodd" d="M11.6518 0.125244L11.6518 13.7457L0.477434 13.7457L0.477434 0.125244L11.6518 0.125244Z" fill="white"/>
</mask>
<g mask="url(#mask0)">
<path d="M10.7636 13.7461C10.5978 13.7461 10.4344 13.6999 10.2899 13.6099L0.892027 7.68768C0.633869 7.52425 0.476368 7.24123 0.476368 6.9357C0.476368 6.63017 0.633869 6.34715 0.892027 6.18373L10.2899 0.261492C10.5635 0.089781 10.9093 0.0791232 11.1923 0.236623C11.4765 0.392939 11.6518 0.690176 11.6518 1.01347L11.6518 12.8579C11.6518 13.1812 11.4765 13.4785 11.1923 13.6348C11.0585 13.7094 10.9104 13.7461 10.7636 13.7461" fill="#F8F8F8"/>
</g>
</svg>
