<svg width="453" height="292" viewBox="0 0 453 292" fill="none" xmlns="http://www.w3.org/2000/svg">
<path d="M448.808 0H157.192C156.08 0.00123308 155.015 0.443241 154.229 1.22905C153.443 2.01487 153.001 3.08031 153 4.19162V201.796C153.001 202.908 153.443 203.973 154.229 204.759C155.015 205.545 156.08 205.987 157.192 205.988H448.808C449.92 205.987 450.985 205.545 451.771 204.759C452.557 203.973 452.999 202.908 453 201.796V4.19162C452.999 3.08031 452.557 2.01487 451.771 1.22905C450.985 0.443241 449.92 0.00123308 448.808 0ZM451.802 201.796C451.802 202.59 451.487 203.352 450.925 203.913C450.364 204.475 449.602 204.79 448.808 204.79H157.192C156.398 204.79 155.636 204.475 155.075 203.913C154.513 203.352 154.198 202.59 154.198 201.796V4.19162C154.198 3.39765 154.513 2.6363 155.075 2.07488C155.636 1.51347 156.398 1.19792 157.192 1.1976H448.808C449.602 1.19792 450.364 1.51347 450.925 2.07488C451.487 2.6363 451.802 3.39765 451.802 4.19162V201.796Z" fill="#3F3D56"/>
<path d="M452.401 16.7904H153.599V17.988H452.401V16.7904Z" fill="#3F3D56"/>
<path d="M163.778 12.5749C165.763 12.5749 167.371 10.9663 167.371 8.98204C167.371 6.99778 165.763 5.38922 163.778 5.38922C161.794 5.38922 160.186 6.99778 160.186 8.98204C160.186 10.9663 161.794 12.5749 163.778 12.5749Z" fill="#3F3D56"/>
<path d="M174.108 12.5749C176.092 12.5749 177.701 10.9663 177.701 8.98204C177.701 6.99778 176.092 5.38922 174.108 5.38922C172.124 5.38922 170.515 6.99778 170.515 8.98204C170.515 10.9663 172.124 12.5749 174.108 12.5749Z" fill="#3F3D56"/>
<path d="M184.437 12.5749C186.421 12.5749 188.03 10.9663 188.03 8.98204C188.03 6.99778 186.421 5.38922 184.437 5.38922C182.453 5.38922 180.844 6.99778 180.844 8.98204C180.844 10.9663 182.453 12.5749 184.437 12.5749Z" fill="#3F3D56"/>
<path d="M235.036 41.3174H182.342C181.23 41.3186 180.165 41.7606 179.379 42.5464C178.593 43.3322 178.151 44.3977 178.15 45.509V98.2036C178.151 99.3149 178.593 100.38 179.379 101.166C180.165 101.952 181.23 102.394 182.342 102.395H235.036C236.148 102.394 237.213 101.952 237.999 101.166C238.785 100.38 239.227 99.3149 239.228 98.2036V45.509C239.227 44.3977 238.785 43.3322 237.999 42.5464C237.213 41.7606 236.148 41.3186 235.036 41.3174ZM238.03 98.2036C238.03 98.9976 237.714 99.7589 237.153 100.32C236.592 100.882 235.83 101.197 235.036 101.198H182.342C181.548 101.197 180.786 100.882 180.225 100.32C179.663 99.7589 179.348 98.9976 179.348 98.2036V45.509C179.348 44.715 179.663 43.9537 180.225 43.3922C180.786 42.8308 181.548 42.5153 182.342 42.515H235.036C235.83 42.5153 236.592 42.8308 237.153 43.3922C237.714 43.9537 238.03 44.715 238.03 45.509V98.2036Z" fill="#3F3D56"/>
<path d="M329.647 41.6168H276.952C275.921 41.6188 274.932 42.0295 274.202 42.759C273.473 43.4885 273.062 44.4773 273.06 45.509V98.2036C273.062 99.2353 273.473 100.224 274.202 100.954C274.932 101.683 275.921 102.094 276.952 102.096H329.647C330.679 102.094 331.668 101.683 332.397 100.954C333.127 100.224 333.537 99.2353 333.539 98.2036V45.509C333.537 44.4773 333.127 43.4885 332.397 42.759C331.668 42.0295 330.679 41.6188 329.647 41.6168Z" fill="#282828"/>
<path d="M329.647 120.659H276.952C275.921 120.661 274.932 121.071 274.202 121.801C273.473 122.53 273.062 123.519 273.06 124.551V177.246C273.062 178.277 273.473 179.266 274.202 179.996C274.932 180.725 275.921 181.136 276.952 181.138H329.647C330.679 181.136 331.668 180.725 332.397 179.996C333.127 179.266 333.537 178.277 333.539 177.246V124.551C333.537 123.519 333.127 122.53 332.397 121.801C331.668 121.071 330.679 120.661 329.647 120.659Z" fill="#282828"/>
<path d="M241.922 109.581H189.228C188.196 109.58 187.206 109.169 186.477 108.44C185.747 107.71 185.337 106.721 185.335 105.689V52.994C185.337 51.9621 185.747 50.9728 186.477 50.2431C187.206 49.5134 188.196 49.103 189.228 49.1018H241.922C242.954 49.103 243.943 49.5134 244.673 50.2431C245.403 50.9728 245.813 51.9621 245.814 52.994V105.689C245.813 106.721 245.403 107.71 244.673 108.44C243.943 109.169 242.954 109.58 241.922 109.581Z" fill="#282828"/>
<path d="M407.587 42H354.892C353.861 42.002 352.872 42.4127 352.142 43.1422C351.413 43.8717 351.002 44.8605 351 45.8922V98.5868C351.002 99.6185 351.413 100.607 352.142 101.337C352.872 102.066 353.861 102.477 354.892 102.479H407.587C408.618 102.477 409.607 102.066 410.337 101.337C411.066 100.607 411.477 99.6185 411.479 98.5868V45.8922C411.477 44.8605 411.066 43.8717 410.337 43.1422C409.607 42.4127 408.618 42.002 407.587 42Z" fill="#2237FF"/>
<path d="M235.587 121H182.892C181.861 121.002 180.872 121.413 180.142 122.142C179.413 122.872 179.002 123.861 179 124.892V177.587C179.002 178.619 179.413 179.607 180.142 180.337C180.872 181.066 181.861 181.477 182.892 181.479H235.587C236.618 181.477 237.607 181.066 238.337 180.337C239.066 179.607 239.477 178.619 239.479 177.587V124.892C239.477 123.861 239.066 122.872 238.337 122.142C237.607 121.413 236.618 121.002 235.587 121Z" fill="#2237FF"/>
<path d="M407.587 121H354.892C353.861 121.002 352.872 121.413 352.142 122.142C351.413 122.872 351.002 123.861 351 124.892V177.587C351.002 178.619 351.413 179.607 352.142 180.337C352.872 181.066 353.861 181.477 354.892 181.479H407.587C408.618 181.477 409.607 181.066 410.337 180.337C411.066 179.607 411.477 178.619 411.479 177.587V124.892C411.477 123.861 411.066 122.872 410.337 122.142C409.607 121.413 408.618 121.002 407.587 121Z" fill="#2237FF"/>
<path d="M43.3884 35.9185C43.3884 35.9185 47.8364 46.4826 37.8283 51.4866C27.8203 56.4906 64.5165 65.9427 68.4085 53.7106C68.4085 53.7106 58.4005 49.8186 62.8485 38.1425L43.3884 35.9185Z" fill="#FFB9B9"/>
<path d="M55.3426 254.15L54.7865 265.826L64.2383 267.494V255.818L55.3426 254.15Z" fill="#FFB9B9"/>
<path d="M19.7581 254.15L20.3141 265.826L10.8623 267.494V255.818L19.7581 254.15Z" fill="#FFB9B9"/>
<path d="M54.2303 42.3125C62.8284 42.3125 69.7984 35.3424 69.7984 26.7444C69.7984 18.1464 62.8284 11.1763 54.2303 11.1763C45.6323 11.1763 38.6622 18.1464 38.6622 26.7444C38.6622 35.3424 45.6323 42.3125 54.2303 42.3125Z" fill="#FFB9B9"/>
<path d="M75.9149 139.613L75.3584 144.061L78.1388 154.625L82.0303 145.173L75.9149 139.613Z" fill="#FFB9B9"/>
<path d="M14.1982 141.281L10.8622 180.757C10.8622 180.757 6.97012 187.986 9.19416 194.102C9.19416 194.102 5.85815 202.442 6.97014 205.222C8.08214 208.002 8.63815 210.782 7.52612 211.894C6.4141 213.006 5.85812 244.142 7.52612 246.922C9.19413 249.702 10.3062 256.374 10.3062 256.374C10.3062 256.374 19.7582 258.598 21.9822 252.482C24.2062 246.366 23.0942 245.81 25.3182 244.142C27.5423 242.474 27.5423 219.122 27.5423 219.122C27.5423 219.122 24.7622 216.342 26.4303 215.23C28.0983 214.118 29.2103 215.23 27.5423 212.45C25.8742 209.67 23.0942 209.67 25.8743 208.558C27.4233 207.957 28.9126 207.213 30.3223 206.334L46.4464 164.077C46.4464 164.077 52.5624 211.338 53.6744 213.562C54.7864 215.786 56.4544 213.006 54.7864 215.786C53.1184 218.566 52.5624 216.898 53.1184 218.566C53.6744 220.234 49.7824 244.142 52.0064 249.146C53.3044 252.038 54.4187 255.009 55.3424 258.042C55.3424 258.042 64.2385 261.934 65.3505 259.154C66.4625 256.374 65.9065 251.37 67.5745 250.814C69.2425 250.258 70.9105 249.146 70.9105 244.698C70.9105 240.25 74.2465 218.566 74.2465 218.566C74.2465 218.566 70.3545 216.898 71.4665 214.118C72.5785 211.338 72.5785 211.894 72.0225 209.67C71.4665 207.446 70.3545 206.89 71.4665 205.222C72.5785 203.554 72.5785 198.55 72.5785 198.55L79.2506 154.625L74.0982 139.613L14.1982 141.281Z" fill="#2F2E41"/>
<path d="M55.8984 263.046C55.8984 263.046 54.2304 261.378 53.6744 263.046C53.1184 264.714 53.1184 280.282 53.1184 280.282C53.1184 280.282 57.5665 283.618 57.5665 285.286C57.5665 286.954 60.9025 292.514 68.6865 291.402C68.7644 291.391 68.8414 291.38 68.9176 291.367C70.0445 291.185 71.1135 290.742 72.04 290.075C72.9666 289.408 73.7253 288.535 74.2562 287.524C74.7871 286.514 75.0757 285.393 75.099 284.252C75.1224 283.11 74.88 281.979 74.3909 280.948L66.4625 264.158C66.4625 264.158 60.9025 258.598 55.8984 263.046Z" fill="#2F2E41"/>
<path d="M19.2021 263.046C19.2021 263.046 20.8701 261.378 21.4261 263.046C21.9821 264.714 21.9821 280.282 21.9821 280.282C21.9821 280.282 17.5341 283.618 17.5341 285.286C17.5341 286.954 14.1981 292.514 6.41403 291.402C6.33619 291.391 6.25918 291.38 6.183 291.367C5.05607 291.185 3.98709 290.742 3.06055 290.075C2.13401 289.408 1.3753 288.535 0.844394 287.524C0.313489 286.514 0.0249354 285.393 0.00154533 284.252C-0.0218447 283.11 0.22057 281.979 0.709624 280.948L8.63804 264.158C8.63804 264.158 14.1981 258.598 19.2021 263.046Z" fill="#2F2E41"/>
<path d="M42.3649 9.88169L39.5834 8.76813C39.5834 8.76813 45.3992 2.36519 53.491 2.92199L51.2151 0.416458C51.2151 0.416458 56.7781 -1.81063 61.8354 4.03551C64.494 7.10871 67.5699 10.7211 69.4874 14.7904H72.4662L71.223 17.5279L75.5744 20.2653L71.1081 19.7736C71.5312 22.137 71.3864 24.567 70.6857 26.8634L70.8054 29.0271C70.8054 29.0271 65.6284 21.0172 65.6284 19.9037V22.6876C65.6284 22.6876 62.8469 20.1821 62.8469 18.5117L61.3297 20.4604L60.5711 17.3981L51.2151 20.4605L52.7323 17.955L46.9164 18.7901L49.1923 15.7278C49.1923 15.7278 42.6178 19.3469 42.3649 22.4092C42.1121 25.4714 38.8249 29.3689 38.8249 29.3689L37.3077 26.585C37.3077 26.585 35.0318 14.0575 42.3649 9.88169Z" fill="#2F2E41"/>
<path d="M78.1386 61.2167H84.3333C84.7884 61.2164 85.2301 61.3711 85.5857 61.6553C85.9412 61.9395 86.1895 62.3363 86.2895 62.7803C87.2454 67.0131 89.7087 79.0115 89.2587 88.4608C88.7027 100.137 89.8147 108.477 89.2587 110.145C88.7027 111.813 89.2587 112.369 89.2587 114.037C89.2587 115.705 90.9267 114.593 89.2587 116.817C87.5907 119.041 87.5907 118.485 87.5907 120.153C87.5907 121.821 82.0307 147.397 82.0307 147.397C82.0307 147.397 78.2082 141.115 74.0034 142.31L74.8026 119.597L75.9147 110.145L74.2466 93.4649L78.1386 61.2167Z" fill="#3F3D56"/>
<path d="M53.0413 53.5558C53.0413 53.5558 43.5892 53.2122 40.5312 49.214C40.5312 49.214 20.793 55.7798 18.569 61.3398C16.345 66.8999 26.3531 91.9201 26.3531 91.9201C26.3531 91.9201 9.11696 143.072 17.457 143.072C25.797 143.072 44.7012 149.744 55.8213 145.852C62.7118 143.463 69.7751 141.604 76.9494 140.292C76.9494 140.292 78.0614 125.28 76.9494 122.5C75.8374 119.72 73.0574 121.388 74.7254 117.496C76.3934 113.604 75.8374 113.048 75.2814 111.38C74.7254 109.712 76.3934 107.488 76.3934 105.264C76.3934 103.04 75.8374 98.0361 75.8374 98.0361C75.8374 98.0361 90.8495 63.0079 87.5135 59.6718C84.1775 56.3358 67.1963 49.9079 67.1963 49.9079C67.1963 49.9079 62.4933 55.7798 53.0413 53.5558Z" fill="#3F3D56"/>
<path d="M7.52603 145.173C7.52603 145.173 2.52201 171.306 10.862 169.082C19.2021 166.857 15.3101 145.173 15.3101 145.173H7.52603Z" fill="#FFB9B9"/>
<path d="M20.3141 61.2167L18.3394 62.204C17.5708 62.5883 16.9015 63.1453 16.384 63.8314C15.8665 64.5174 15.5148 65.314 15.3564 66.1586L7.52596 107.921C7.52596 107.921 5.30194 112.925 5.30194 113.481C5.30194 114.037 6.41394 114.037 5.30194 115.705C4.18995 117.373 2.52192 116.817 3.63394 117.929C4.26864 118.506 4.66518 119.299 4.74595 120.153L5.85795 147.397C5.85795 147.397 15.31 144.617 18.09 147.397C18.09 147.397 15.31 139.057 16.978 136.277C18.646 133.497 18.646 129.605 18.646 129.605C18.646 129.605 17.534 129.605 20.314 126.825C23.0941 124.045 23.65 122.933 23.0941 122.377C22.5381 121.821 21.9821 116.817 21.9821 116.261C21.9821 115.705 27.5421 78.4528 27.5421 78.4528L20.3141 61.2167Z" fill="#3F3D56"/>
</svg>
