<svg width="40" height="40" viewBox="0 0 40 40" fill="none" xmlns="http://www.w3.org/2000/svg">
<path opacity="0.4" d="M24.9861 5.30865H12.0525C7.36112 5.30865 4.62964 8.05557 4.62964 12.7624V28.7037C4.62964 33.4877 7.36112 36.1729 12.0525 36.1729H24.9861C29.7531 36.1729 32.4074 33.4877 32.4074 28.7037V12.7624C32.4074 8.05557 29.7531 5.30865 24.9861 5.30865Z" fill="#282828"/>
<path fill-rule="evenodd" clip-rule="evenodd" d="M12.4691 12.4846V12.5C11.804 12.5 11.2654 13.0401 11.2654 13.7037C11.2654 14.3673 11.804 14.9074 12.4691 14.9074H17.0818C17.7469 14.9074 18.287 14.3673 18.287 13.6867C18.287 13.0247 17.7469 12.4846 17.0818 12.4846H12.4691ZM24.5679 21.8827H12.4691C11.804 21.8827 11.2654 21.3426 11.2654 20.679C11.2654 20.0154 11.804 19.4738 12.4691 19.4738H24.5679C25.2315 19.4738 25.7716 20.0154 25.7716 20.679C25.7716 21.3426 25.2315 21.8827 24.5679 21.8827ZM24.5678 28.9352H12.4691C12.0061 28.9969 11.5586 28.7654 11.3116 28.3796C11.0647 27.9784 11.0647 27.4691 11.3116 27.0833C11.5586 26.6821 12.0061 26.466 12.4691 26.5123H24.5678C25.1836 26.5741 25.6481 27.0988 25.6481 27.7315C25.6481 28.3472 25.1836 28.8734 24.5678 28.9352Z" fill="#282828"/>
<path opacity="0.4" d="M37.0314 14.0395H32.8134C32.4018 14.0395 32.0671 14.3795 32.0671 14.7975C32.0671 15.2164 32.4018 15.5556 32.8134 15.5556H37.0314C37.4429 15.5556 37.7776 15.2164 37.7776 14.7975C37.7776 14.3795 37.4429 14.0395 37.0314 14.0395Z" fill="#282828"/>
<path d="M29.8584 5.11398L33.8554 8.34367C33.9518 8.42091 33.9682 8.56265 33.893 8.66139L29.1545 14.8357C28.8566 15.2171 28.4177 15.4329 27.9474 15.4409L25.3606 15.4727C25.2226 15.4743 25.1019 15.3788 25.0706 15.2418L24.4827 12.6858C24.3808 12.216 24.4827 11.7302 24.7805 11.356L29.5425 5.1522C29.6193 5.05266 29.7612 5.03515 29.8584 5.11398Z" fill="#282828"/>
<path opacity="0.4" d="M35.6448 6.41885L34.8742 7.38075C34.7966 7.47869 34.6571 7.49462 34.5607 7.41658C33.624 6.65853 31.2253 4.71323 30.5598 4.17415C30.4626 4.09452 30.4493 3.95278 30.5277 3.85404L31.2708 2.93116C31.9449 2.06322 33.1207 1.98359 34.0692 2.74005L35.1588 3.608C35.6056 3.95836 35.9034 4.4202 36.0053 4.90593C36.1229 5.44023 35.9975 5.96497 35.6448 6.41885Z" fill="#282828"/>
</svg>
