<svg width="40" height="40" viewBox="0 0 40 40" fill="none" xmlns="http://www.w3.org/2000/svg">
<g id="Iconly/Bulk/Work">
<g id="Work">
<path id="Fill 1" opacity="0.4" d="M3.33374 18.4641C3.41707 22.3608 3.65041 29.0258 3.68374 29.7608C3.80207 31.3325 4.40374 32.9208 5.34041 34.0408C6.64374 35.6125 8.24874 36.3141 10.4871 36.3141C13.5804 36.3308 16.9904 36.3308 20.3021 36.3308C23.6271 36.3308 26.8537 36.3308 29.5787 36.3141C31.7854 36.3141 33.4404 35.5941 34.7271 34.0408C35.6637 32.9208 36.2654 31.3158 36.3504 29.7608C36.3837 29.1425 36.5504 21.9075 36.6504 18.4641H3.33374Z" fill="#282828"/>
<path id="Fill 4" d="M18.7424 25.6403V27.797C18.7424 28.487 19.3024 29.047 19.9924 29.047C20.6824 29.047 21.2424 28.487 21.2424 27.797V25.6403C21.2424 24.9503 20.6824 24.3903 19.9924 24.3903C19.3024 24.3903 18.7424 24.9503 18.7424 25.6403Z" fill="#282828"/>
<path id="Fill 6" fill-rule="evenodd" clip-rule="evenodd" d="M17.0187 24.2607C16.8521 24.8657 16.2704 25.2523 15.6404 25.169C11.3887 24.5757 7.32541 23.0673 3.89541 20.8023C3.54374 20.5723 3.33374 20.179 3.33374 19.759V13.9823C3.33374 10.4823 6.18707 7.63565 9.69541 7.63565H12.9737C13.2871 5.21565 15.3371 3.33398 17.8404 3.33398H22.1437C24.6454 3.33398 26.6971 5.21565 27.0104 7.63565H30.3054C33.8037 7.63565 36.6504 10.4823 36.6504 13.9823V19.759C36.6504 20.179 36.4387 20.5707 36.0904 20.8023C32.6537 23.0773 28.5737 24.5923 24.2937 25.184C24.2354 25.1923 24.1787 25.1957 24.1221 25.1957C23.5571 25.1957 23.0521 24.814 22.9104 24.254C22.5737 22.9273 21.3687 21.999 19.9837 21.999C18.5804 21.999 17.3887 22.9073 17.0187 24.2607ZM22.1438 5.83398H17.8404C16.7188 5.83398 15.7821 6.60065 15.5021 7.63565H24.4804C24.2004 6.60065 23.2638 5.83398 22.1438 5.83398Z" fill="#282828"/>
</g>
</g>
</svg>
