<svg width="40" height="40" viewBox="0 0 40 40" fill="none" xmlns="http://www.w3.org/2000/svg">
<rect width="40" height="40" rx="5" fill="#2237FF"/>
<path d="M8 14.8125H13.5906V32H8V14.8125ZM28.8188 15.0141C28.7594 14.9953 28.7031 14.975 28.6406 14.9578C28.5656 14.9408 28.49 14.9262 28.4141 14.9141C28.084 14.8466 27.7479 14.8125 27.4109 14.8125C24.1516 14.8125 22.0844 17.1828 21.4031 18.0984V14.8125H15.8125V32H21.4031V22.625C21.4031 22.625 25.6281 16.7406 27.4109 21.0625V32H33V20.4016C32.9977 19.1674 32.5859 17.9689 31.8292 16.9939C31.0725 16.0189 30.0137 15.3226 28.8188 15.0141Z" fill="white"/>
<path d="M10.7344 12.4688C12.2445 12.4688 13.4688 11.2445 13.4688 9.73438C13.4688 8.22422 12.2445 7 10.7344 7C9.22422 7 8 8.22422 8 9.73438C8 11.2445 9.22422 12.4688 10.7344 12.4688Z" fill="white"/>
</svg>
