<svg width="40" height="40" viewBox="0 0 40 40" fill="none" xmlns="http://www.w3.org/2000/svg">
<rect width="40" height="40" rx="5" fill="#2237FF"/>
<path d="M25.3359 22.102C25.0847 21.9764 23.4521 21.2229 23.2009 21.0973C22.9497 20.9717 22.6986 20.9717 22.4474 21.2229C22.1962 21.4741 21.6939 22.2276 21.4427 22.4788C21.3171 22.73 21.0659 22.73 20.8147 22.6044C19.9356 22.2276 19.0565 21.7252 18.303 21.0973C17.675 20.4694 17.0471 19.7158 16.5447 18.9623C16.4191 18.7111 16.5447 18.4599 16.6703 18.3344C16.7959 18.2088 16.9215 17.9576 17.1727 17.832C17.2983 17.7064 17.4238 17.4552 17.4238 17.3297C17.5494 17.2041 17.5494 16.9529 17.4238 16.8273C17.2983 16.7017 16.6703 15.1946 16.4191 14.5667C16.2935 13.6876 16.0424 13.6876 15.7912 13.6876C15.6656 13.6876 15.4144 13.6876 15.1632 13.6876C14.9121 13.6876 14.5353 13.9388 14.4097 14.0644C13.6562 14.8179 13.2794 15.697 13.2794 16.7017C13.405 17.832 13.7818 18.9623 14.5353 19.967C15.9168 21.9764 17.675 23.6091 19.81 24.6138C20.438 24.865 20.9403 25.1161 21.5683 25.2417C22.1962 25.4929 22.8241 25.4929 23.5777 25.3673C24.4568 25.2417 25.2103 24.6138 25.7127 23.8603C25.9639 23.3579 25.9639 22.8555 25.8383 22.3532C25.8383 22.3532 25.5871 22.2276 25.3359 22.102ZM28.4756 10.6735C23.5777 5.77551 15.6656 5.77551 10.7677 10.6735C6.74882 14.6923 5.99529 20.8461 8.75824 25.7441L7 32.1491L13.6562 30.3909C15.54 31.3956 17.5494 31.8979 19.5588 31.8979C26.4662 31.8979 31.9921 26.372 31.9921 19.4647C32.1177 16.1994 30.7362 13.0596 28.4756 10.6735ZM25.0847 28.2558C23.4521 29.2606 21.5683 29.8885 19.5588 29.8885C17.675 29.8885 15.9168 29.3861 14.2841 28.507L13.9074 28.2558L10.0141 29.2606L11.0188 25.4929L10.7677 25.1161C7.75353 20.0926 9.26059 13.8132 14.1585 10.6735C19.0565 7.53375 25.3359 9.1664 28.35 13.9388C31.3642 18.8367 29.9827 25.2417 25.0847 28.2558Z" fill="white"/>
</svg>
