<svg width="40" height="40" viewBox="0 0 40 40" fill="none" xmlns="http://www.w3.org/2000/svg">
<rect width="40" height="40" rx="5" fill="#2237FF"/>
<path d="M26.175 11.325C25.8783 11.325 25.5883 11.413 25.3416 11.5778C25.095 11.7426 24.9027 11.9769 24.7892 12.251C24.6756 12.5251 24.6459 12.8267 24.7038 13.1176C24.7617 13.4086 24.9046 13.6759 25.1143 13.8857C25.3241 14.0954 25.5914 14.2383 25.8824 14.2962C26.1733 14.3541 26.4749 14.3244 26.749 14.2108C27.0231 14.0973 27.2574 13.905 27.4222 13.6584C27.587 13.4117 27.675 13.1217 27.675 12.825C27.675 12.4272 27.517 12.0456 27.2357 11.7643C26.9544 11.483 26.5728 11.325 26.175 11.325ZM31.925 14.35C31.9007 13.3129 31.7064 12.2868 31.35 11.3125C31.0322 10.4789 30.5375 9.7241 29.9 9.1C29.281 8.45928 28.5245 7.96772 27.6875 7.6625C26.7158 7.2952 25.6886 7.09651 24.65 7.075C23.325 7 22.9 7 19.5 7C16.1 7 15.675 7 14.35 7.075C13.3114 7.09651 12.2842 7.2952 11.3125 7.6625C10.4771 7.97081 9.72117 8.46195 9.1 9.1C8.45928 9.71897 7.96772 10.4755 7.6625 11.3125C7.2952 12.2842 7.09651 13.3114 7.075 14.35C7 15.675 7 16.1 7 19.5C7 22.9 7 23.325 7.075 24.65C7.09651 25.6886 7.2952 26.7158 7.6625 27.6875C7.96772 28.5245 8.45928 29.281 9.1 29.9C9.72117 30.538 10.4771 31.0292 11.3125 31.3375C12.2842 31.7048 13.3114 31.9035 14.35 31.925C15.675 32 16.1 32 19.5 32C22.9 32 23.325 32 24.65 31.925C25.6886 31.9035 26.7158 31.7048 27.6875 31.3375C28.5245 31.0323 29.281 30.5407 29.9 29.9C30.5403 29.2782 31.0354 28.5227 31.35 27.6875C31.7064 26.7132 31.9007 25.6871 31.925 24.65C31.925 23.325 32 22.9 32 19.5C32 16.1 32 15.675 31.925 14.35ZM29.675 24.5C29.6659 25.2935 29.5222 26.0796 29.25 26.825C29.0504 27.369 28.7298 27.8605 28.3125 28.2625C27.9071 28.6756 27.4165 28.9955 26.875 29.2C26.1296 29.4722 25.3435 29.6159 24.55 29.625C23.3 29.6875 22.8375 29.7 19.55 29.7C16.2625 29.7 15.8 29.7 14.55 29.625C13.7261 29.6404 12.9057 29.5136 12.125 29.25C11.6072 29.0351 11.1392 28.716 10.75 28.3125C10.3351 27.9109 10.0186 27.419 9.825 26.875C9.51982 26.1189 9.35055 25.3149 9.325 24.5C9.325 23.25 9.25 22.7875 9.25 19.5C9.25 16.2125 9.25 15.75 9.325 14.5C9.3306 13.6888 9.47869 12.8849 9.7625 12.125C9.98256 11.5974 10.3203 11.1271 10.75 10.75C11.1298 10.3202 11.5991 9.97887 12.125 9.75C12.8869 9.47505 13.69 9.33135 14.5 9.325C15.75 9.325 16.2125 9.25 19.5 9.25C22.7875 9.25 23.25 9.25 24.5 9.325C25.2935 9.3341 26.0796 9.47781 26.825 9.75C27.393 9.96082 27.9029 10.3036 28.3125 10.75C28.7221 11.134 29.0422 11.6034 29.25 12.125C29.5278 12.8862 29.6716 13.6897 29.675 14.5C29.7375 15.75 29.75 16.2125 29.75 19.5C29.75 22.7875 29.7375 23.25 29.675 24.5ZM19.5 13.0875C18.2323 13.09 16.9937 13.4682 15.9408 14.1743C14.8879 14.8804 14.068 15.8827 13.5845 17.0547C13.1011 18.2266 12.9759 19.5156 13.2247 20.7587C13.4736 22.0017 14.0853 23.1432 14.9826 24.0387C15.8799 24.9343 17.0225 25.5438 18.2661 25.7902C19.5096 26.0366 20.7983 25.9089 21.9693 25.4232C23.1403 24.9375 24.1411 24.1155 24.8452 23.0613C25.5492 22.007 25.925 20.7677 25.925 19.5C25.9267 18.6564 25.7615 17.8208 25.439 17.0412C25.1166 16.2616 24.6432 15.5535 24.0461 14.9576C23.449 14.3616 22.7399 13.8896 21.9597 13.5687C21.1796 13.2477 20.3436 13.0842 19.5 13.0875ZM19.5 23.6625C18.6767 23.6625 17.872 23.4184 17.1874 22.961C16.5029 22.5036 15.9694 21.8535 15.6544 21.0929C15.3393 20.3323 15.2569 19.4954 15.4175 18.6879C15.5781 17.8805 15.9745 17.1388 16.5567 16.5567C17.1388 15.9745 17.8805 15.5781 18.6879 15.4175C19.4954 15.2569 20.3323 15.3393 21.0929 15.6544C21.8535 15.9694 22.5036 16.5029 22.961 17.1874C23.4184 17.872 23.6625 18.6767 23.6625 19.5C23.6625 20.0466 23.5548 20.5879 23.3456 21.0929C23.1365 21.5979 22.8299 22.0568 22.4433 22.4433C22.0568 22.8299 21.5979 23.1365 21.0929 23.3456C20.5879 23.5548 20.0466 23.6625 19.5 23.6625Z" fill="white"/>
</svg>
