<svg width="100" height="100" viewBox="0 0 100 100" fill="none" xmlns="http://www.w3.org/2000/svg">
<path fill-rule="evenodd" clip-rule="evenodd" d="M93.1034 33.2415L97.3966 36.638C99.0388 37.9482 99.9967 39.9337 100 42.0346V93.1035C100 96.9124 96.9123 100 93.1034 100H6.89655C3.08769 100 0 96.9124 0 93.1035V42.0346C0.00328117 39.9337 0.961153 37.9482 2.60345 36.638L6.89655 33.2415H93.1034Z" fill="#F29C1F"/>
<path fill-rule="evenodd" clip-rule="evenodd" d="M6.89673 82.3103V3.44828C6.90241 1.5462 8.44293 0.00568069 10.345 0H89.6553C91.5574 0.00568069 93.0979 1.5462 93.1036 3.44828V80.5172L6.89673 82.3103Z" fill="#fff"/>
<path d="M50 55.1723C63.331 55.1723 74.1379 44.3654 74.1379 31.0344C74.1379 17.7034 63.331 6.89648 50 6.89648C36.669 6.89648 25.8621 17.7034 25.8621 31.0344C25.8621 44.3654 36.669 55.1723 50 55.1723Z" fill="#038F00"/>
<path fill-rule="evenodd" clip-rule="evenodd" d="M44.8276 44.8274C43.9128 44.8291 43.0351 44.4654 42.3897 43.817L35.4931 36.9205C34.1863 35.5674 34.205 33.4167 35.5351 32.0866C36.8652 30.7565 39.0159 30.7378 40.369 32.0446L44.8276 36.5015L59.631 21.6998C60.4968 20.8034 61.7789 20.4439 62.9845 20.7594C64.1901 21.075 65.1317 22.0165 65.4472 23.2222C65.7628 24.4278 65.4033 25.7099 64.5069 26.5756L47.2655 43.817C46.6201 44.4654 45.7424 44.8291 44.8276 44.8274Z" fill="#fff"/>
<path fill-rule="evenodd" clip-rule="evenodd" d="M100 42.9485L100 93.1037C100.008 95.061 99.1727 96.927 97.7069 98.2243L65.1897 72.9485L100 42.9485Z" fill="#F0C419"/>
<path fill-rule="evenodd" clip-rule="evenodd" d="M97.707 98.2242C96.4454 99.3658 94.805 99.9987 93.1036 100H6.89666C5.19519 99.9987 3.55479 99.3658 2.29321 98.2242L34.8105 72.9483L47.8622 62.8104C49.118 61.8275 50.8822 61.8275 52.138 62.8104L65.1898 72.9483L97.707 98.2242Z" fill="#F3D55B"/>
<path fill-rule="evenodd" clip-rule="evenodd" d="M34.8104 72.9485L2.29316 98.2243C0.827421 96.927 -0.00819873 95.061 6.06552e-05 93.1037L0 42.9485L34.8104 72.9485Z" fill="#F0C419"/>
</svg>
