<?xml version="1.0" standalone="no"?>
<!DOCTYPE svg PUBLIC "-//W3C//DTD SVG 20010904//EN"
 "http://www.w3.org/TR/2001/REC-SVG-20010904/DTD/svg10.dtd">
<svg version="1.0" xmlns="http://www.w3.org/2000/svg"
 width="1024.000000pt" height="1024.000000pt" viewBox="0 0 1024.000000 1024.000000"
 preserveAspectRatio="xMidYMid meet">
<metadata>
Created by potrace 1.14, written by Peter Selinger 2001-2017
</metadata>
<g transform="translate(0.000000,1024.000000) scale(0.100000,-0.100000)"
fill="#000000" stroke="none">
<path d="M2542 8517 c-5 -7 -15 -30 -22 -52 -6 -22 -18 -54 -26 -72 -8 -17
-14 -34 -14 -38 0 -6 -107 -304 -130 -360 -18 -45 -35 -90 -35 -95 -1 -5 -39
-110 -52 -140 -3 -8 -7 -19 -9 -25 -1 -5 -28 -80 -59 -165 -32 -85 -61 -166
-65 -180 -5 -14 -21 -56 -35 -95 -15 -38 -35 -92 -44 -120 -42 -117 -73 -201
-81 -220 -5 -11 -12 -31 -15 -45 -4 -14 -13 -38 -20 -55 -7 -16 -23 -59 -35
-95 -12 -35 -24 -69 -28 -75 -4 -5 -7 -14 -8 -20 -2 -5 -19 -55 -39 -110 -59
-159 -111 -304 -142 -390 -15 -44 -30 -82 -33 -85 -3 -3 -6 -13 -8 -24 -2 -10
-8 -30 -14 -45 -6 -14 -12 -28 -13 -31 -9 -28 -57 -155 -65 -175 -11 -26 -111
-307 -114 -320 -2 -5 -9 -23 -15 -40 -7 -16 -14 -34 -15 -40 -2 -5 -6 -17 -9
-25 -12 -28 -88 -235 -92 -250 -2 -8 -16 -46 -31 -85 -15 -38 -44 -117 -64
-175 -21 -58 -57 -157 -80 -220 -23 -63 -43 -119 -44 -125 -1 -5 -9 -26 -18
-45 -12 -28 -48 -130 -53 -150 -2 -7 -14 -39 -26 -68 -5 -13 -48 -130 -95
-260 -47 -131 -97 -266 -111 -302 -14 -36 -26 -69 -28 -75 -1 -5 -5 -19 -9
-30 -5 -11 -12 -31 -17 -45 -5 -14 -14 -38 -20 -55 -7 -16 -13 -33 -13 -37 -1
-3 -4 -10 -9 -14 -4 -4 -7 -17 -7 -29 0 -12 -3 -25 -8 -29 -4 -4 -7 -11 -8
-14 0 -4 -6 -20 -13 -37 -7 -16 -14 -34 -15 -40 -2 -5 -7 -21 -13 -35 -6 -14
-20 -54 -32 -90 -12 -36 -26 -74 -31 -85 -5 -11 -30 -78 -55 -150 -26 -71 -53
-143 -60 -160 -7 -16 -16 -41 -20 -55 -3 -14 -19 -59 -35 -100 -15 -41 -42
-115 -60 -165 -17 -49 -38 -104 -46 -122 -8 -17 -14 -35 -14 -40 0 -5 -12 -38
-26 -74 -14 -35 -27 -68 -28 -74 -2 -5 -6 -17 -9 -25 -24 -63 -109 -298 -112
-310 -2 -8 -6 -22 -10 -31 -4 -12 1 -18 19 -21 14 -3 28 -3 31 0 7 7 74 7 81
-1 3 -3 17 -2 30 3 13 5 26 6 29 0 3 -5 18 -5 35 0 17 5 30 6 30 2 0 -4 43 -7
95 -7 52 0 95 3 95 7 0 4 13 3 30 -2 17 -5 32 -5 35 0 3 5 16 5 28 1 12 -5 34
-5 49 0 16 4 28 5 28 1 0 -7 116 -5 137 3 7 2 15 0 18 -5 3 -6 15 -6 30 0 14
5 27 5 30 0 3 -5 18 -5 35 0 17 5 30 6 30 2 0 -4 43 -7 95 -7 52 0 95 3 95 7
0 4 13 3 29 -2 16 -4 32 -6 35 -2 4 3 25 5 49 4 89 -4 167 -3 176 2 5 4 12 2
16 -3 3 -7 15 -7 30 -1 15 6 27 6 30 -1 4 -5 10 -7 15 -4 4 2 27 5 51 5 24 0
73 0 109 0 36 1 71 1 78 1 6 -1 19 -1 27 -1 8 0 22 0 30 0 8 0 21 0 28 -1 12
0 75 0 112 1 11 0 32 0 47 0 22 0 28 5 33 32 4 18 11 39 16 48 4 8 46 137 94
285 48 149 89 277 92 285 4 8 7 17 8 20 1 3 5 12 8 20 4 8 18 53 32 100 14 47
30 94 35 105 5 11 22 63 39 115 l31 95 1196 0 c1048 0 1198 -2 1205 -15 5 -8
22 -58 39 -110 17 -52 34 -102 37 -110 3 -8 7 -19 8 -25 4 -16 204 -622 232
-700 13 -38 26 -81 29 -95 7 -34 25 -52 46 -47 10 3 18 1 18 -3 0 -5 13 -5 30
0 16 5 30 6 30 2 0 -4 16 -7 35 -7 19 0 35 3 35 7 0 4 6 5 13 2 24 -9 71 -10
100 -3 15 4 27 5 27 1 0 -7 116 -5 137 3 7 2 15 0 18 -5 3 -6 15 -6 30 0 14 5
27 5 30 0 3 -5 18 -5 35 0 17 5 30 6 30 2 0 -4 43 -7 95 -7 52 0 95 3 95 7 0
4 13 3 29 -2 16 -4 32 -6 35 -3 3 4 29 5 58 4 29 -1 59 -1 66 -1 6 0 19 0 27
0 8 0 22 0 30 0 8 0 23 0 33 0 9 0 26 0 37 0 11 1 27 1 35 1 8 -1 38 0 65 0
28 1 56 1 63 0 6 0 19 -1 27 -1 8 0 22 0 30 0 8 0 22 0 30 0 8 0 23 0 33 0 9
0 26 0 37 0 11 1 27 1 35 1 69 -3 121 -2 130 4 5 3 10 3 10 -2 0 -8 114 -7
137 2 7 2 15 0 18 -5 3 -6 15 -6 30 0 15 6 27 6 30 0 3 -5 15 -6 28 -1 12 5
34 5 48 1 15 -4 32 -4 40 0 7 5 21 4 30 -1 32 -17 29 7 -12 117 -42 111 -61
169 -59 180 1 4 -2 10 -7 13 -5 3 -19 35 -31 71 -23 69 -65 185 -75 210 -17
40 -80 218 -84 238 -3 12 -9 25 -14 28 -5 3 -9 13 -9 23 0 10 -7 32 -15 49 -9
17 -18 39 -20 49 -2 10 -17 52 -33 93 -15 41 -29 77 -29 80 -3 10 -13 38 -73
202 -34 91 -63 172 -64 180 -1 7 -7 22 -13 33 -6 11 -16 38 -22 60 -7 22 -16
49 -21 60 -5 11 -32 85 -60 165 -28 80 -55 154 -60 165 -5 11 -32 85 -60 165
-28 80 -54 152 -57 160 -4 8 -7 17 -8 20 -1 3 -5 12 -8 20 -4 8 -24 65 -46
125 -21 61 -46 127 -54 148 -9 20 -16 38 -16 40 0 1 -4 15 -10 30 -6 15 -14
40 -17 54 -4 15 -13 38 -20 52 -8 14 -14 32 -14 39 0 7 -4 20 -9 30 -5 9 -33
82 -61 162 -28 80 -55 154 -60 165 -5 11 -18 47 -30 80 -11 33 -23 67 -27 75
-3 8 -7 20 -8 25 -3 9 -40 112 -52 145 -4 8 -7 17 -8 20 -1 3 -7 18 -13 33 -7
16 -12 32 -12 36 0 5 -9 33 -21 62 -25 64 -38 99 -74 199 -14 41 -30 83 -36
92 -5 10 -9 26 -9 36 0 10 -4 22 -9 28 -5 5 -16 34 -26 64 -10 30 -23 69 -30
85 -7 17 -32 84 -55 150 -23 66 -45 129 -50 140 -23 58 -52 135 -54 146 -2 8
-7 25 -13 39 -22 51 -63 165 -61 170 1 3 -4 15 -11 28 -7 13 -14 31 -16 40 -2
9 -9 31 -16 47 -6 17 -13 35 -14 40 -3 11 -81 226 -95 260 -4 11 -13 36 -20
55 -7 19 -16 44 -20 55 -16 37 -71 190 -74 205 -2 8 -16 45 -31 82 -15 37 -28
73 -29 80 -2 7 -9 27 -15 43 -7 17 -14 35 -15 40 -2 6 -8 24 -15 40 -7 17 -15
42 -18 58 -3 15 -10 30 -14 33 -5 3 -7 10 -4 15 4 5 1 9 -4 9 -6 0 -11 7 -11
15 0 8 -22 74 -49 147 -27 73 -89 243 -138 378 l-88 245 -1082 2 c-820 1
-1084 -1 -1091 -10z m1092 -2068 c3 -13 6 -24 24 -69 3 -8 6 -17 6 -20 4 -15
90 -279 98 -300 17 -41 24 -60 57 -165 18 -55 36 -109 40 -120 5 -11 15 -40
22 -65 7 -25 15 -49 18 -55 3 -5 7 -19 8 -30 2 -11 8 -31 14 -45 17 -37 25
-60 40 -110 7 -25 15 -49 18 -55 3 -5 6 -14 7 -20 2 -9 54 -170 70 -215 3 -8
5 -15 4 -15 -2 0 16 -49 36 -100 4 -11 9 -27 10 -35 3 -17 41 -131 57 -170 5
-14 13 -34 17 -45 10 -27 52 -157 55 -170 1 -5 5 -18 9 -27 4 -9 9 -22 10 -30
2 -7 6 -20 9 -28 3 -8 20 -58 37 -110 17 -52 34 -102 39 -111 5 -9 6 -20 3
-25 -4 -6 -280 -10 -722 -9 -626 0 -715 2 -713 15 0 8 34 112 73 230 39 118
73 220 74 225 4 18 57 180 66 200 8 19 21 59 26 80 1 6 40 125 87 265 46 140
135 408 196 595 61 187 114 347 118 355 3 8 7 20 8 26 2 6 15 50 30 98 26 80
41 96 49 55z"/>
<path d="M8988 3636 c-1 -2 -46 -6 -98 -9 -260 -17 -469 -91 -649 -232 -95
-74 -217 -228 -262 -331 -26 -61 -58 -159 -65 -199 -17 -108 -20 -139 -18
-220 1 -101 10 -181 26 -240 7 -22 12 -43 14 -47 1 -5 2 -9 4 -10 1 -2 3 -11
5 -21 10 -54 89 -192 160 -282 132 -167 381 -302 625 -339 19 -3 53 -8 75 -12
22 -3 96 -7 164 -8 113 -2 152 1 286 18 103 14 360 114 407 159 7 7 26 21 43
31 49 32 163 147 214 216 49 67 104 173 127 245 14 44 36 137 39 170 6 53 6
201 0 245 -7 64 -13 99 -20 119 -3 11 -7 28 -9 38 -9 40 -51 140 -83 196 -117
198 -313 360 -529 437 -47 16 -95 32 -107 34 -108 22 -142 27 -226 32 -53 3
-101 7 -108 9 -6 2 -13 2 -15 1z"/>
</g>
</svg>
