<svg width="30" height="31" viewBox="0 0 30 31" fill="none" xmlns="http://www.w3.org/2000/svg">
<g clip-path="url(#clip0)">
<path d="M21.0519 10.6428H8.94812L15 15.8302L21.0519 10.6428Z" fill="#2237FF"/>
<path d="M14.9999 17.0715C14.872 17.0715 14.7483 17.0257 14.6512 16.9422L8.03564 11.2717V21.3572H21.9642V11.2717L15.3486 16.9422C15.2516 17.0257 15.1278 17.0715 14.9999 17.0715Z" fill="#2237FF"/>
<path d="M15 1C6.71579 1 0 7.71579 0 16C0 24.2842 6.71579 31 15 31C23.2842 31 30 24.2842 30 16C29.9906 7.71971 23.2803 1.00942 15 1ZM23.0357 21.8929C23.0357 22.1887 22.7958 22.4286 22.5 22.4286H7.5C7.20415 22.4286 6.96429 22.1887 6.96429 21.8929V10.1071C6.96429 9.8113 7.20415 9.57143 7.5 9.57143H22.5C22.7958 9.57143 23.0357 9.8113 23.0357 10.1071V21.8929Z" fill="#2237FF"/>
</g>
<defs>
<clipPath id="clip0">
<rect width="30" height="30" fill="white" transform="translate(0 0.579102)"/>
</clipPath>
</defs>
</svg>
