<svg width="100" height="100" viewBox="0 0 100 100" fill="none" xmlns="http://www.w3.org/2000/svg">
<path fill-rule="evenodd" clip-rule="evenodd" d="M93.1034 33.2415L97.3966 36.638C99.0388 37.9482 99.9967 39.9337 100 42.0346V93.1035C100 96.9124 96.9123 100 93.1034 100H6.89655C3.08769 100 0 96.9124 0 93.1035V42.0346C0.00328117 39.9337 0.961153 37.9482 2.60345 36.638L6.89655 33.2415H93.1034Z" fill="#F29C1F"/>
<path fill-rule="evenodd" clip-rule="evenodd" d="M6.89673 82.3103V3.44828C6.90241 1.5462 8.44293 0.00568069 10.345 0H89.6553C91.5574 0.00568069 93.0979 1.5462 93.1036 3.44828V80.5172L6.89673 82.3103Z" fill="#ECF0F1"/>
<path d="M72.9516 15.4196L55.3702 33L72.9516 50.5813L66.5319 57L51 41.4681L35.4681 57L27 48.5319L42.5319 33L27 17.4681L35.4681 9L51 24.5319L66.5319 9L72.9516 15.4196Z" fill="#C20C00"/>
<path fill-rule="evenodd" clip-rule="evenodd" d="M100 42.9485L100 93.1037C100.008 95.061 99.1727 96.927 97.7069 98.2243L65.1897 72.9485L100 42.9485Z" fill="#F0C419"/>
<path fill-rule="evenodd" clip-rule="evenodd" d="M97.707 98.2242C96.4454 99.3658 94.805 99.9987 93.1036 100H6.89666C5.19519 99.9987 3.55479 99.3658 2.29321 98.2242L34.8105 72.9483L47.8622 62.8104C49.118 61.8275 50.8822 61.8275 52.138 62.8104L65.1898 72.9483L97.707 98.2242Z" fill="#F3D55B"/>
<path fill-rule="evenodd" clip-rule="evenodd" d="M34.8104 72.9485L2.29316 98.2243C0.827421 96.927 -0.00819873 95.061 6.06552e-05 93.1037L0 42.9485L34.8104 72.9485Z" fill="#F0C419"/>
</svg>
