<svg width="64" height="44" viewBox="0 0 64 44" fill="none" xmlns="http://www.w3.org/2000/svg">
<path d="M30.12 36.1H15.12L12.84 43H0.48L15.9 0.699997H29.46L44.82 43H32.4L30.12 36.1ZM27.18 27.1L22.62 13.42L18.12 27.1H27.18ZM56.2373 43.48C54.1573 43.48 52.4773 42.92 51.1973 41.8C49.9573 40.64 49.3373 39.18 49.3373 37.42C49.3373 35.66 49.9573 34.2 51.1973 33.04C52.4773 31.88 54.1573 31.3 56.2373 31.3C58.2773 31.3 59.9173 31.88 61.1573 33.04C62.4373 34.2 63.0773 35.66 63.0773 37.42C63.0773 39.14 62.4373 40.58 61.1573 41.74C59.9173 42.9 58.2773 43.48 56.2373 43.48Z" fill="#2237FF"/>
</svg>
