<svg width="40" height="40" viewBox="0 0 40 40" fill="none" xmlns="http://www.w3.org/2000/svg">
<path d="M0.625 38.8793H8.125C8.29076 38.8793 8.44973 38.8135 8.56694 38.6963C8.68415 38.5791 8.75 38.4201 8.75 38.2543V30.7543C8.75 30.5886 8.68415 30.4296 8.56694 30.3124C8.44973 30.1952 8.29076 30.1293 8.125 30.1293H0.625C0.45924 30.1293 0.300268 30.1952 0.183058 30.3124C0.065848 30.4296 0 30.5886 0 30.7543V38.2543C0 38.4201 0.065848 38.5791 0.183058 38.6963C0.300268 38.8135 0.45924 38.8793 0.625 38.8793ZM1.25 31.3793H7.5V37.6293H1.25V31.3793ZM37.5 34.5043C37.5 33.5154 37.2068 32.5487 36.6573 31.7265C36.1079 30.9042 35.327 30.2634 34.4134 29.8849C33.4998 29.5065 32.4945 29.4075 31.5245 29.6004C30.5546 29.7933 29.6637 30.2695 28.9645 30.9688C28.2652 31.6681 27.789 32.559 27.5961 33.5289C27.4031 34.4988 27.5022 35.5041 27.8806 36.4178C28.259 37.3314 28.8999 38.1123 29.7221 38.6617C30.5444 39.2111 31.5111 39.5043 32.5 39.5043C33.8261 39.5043 35.0979 38.9776 36.0355 38.0399C36.9732 37.1022 37.5 35.8304 37.5 34.5043ZM28.75 34.5043C28.75 33.7627 28.9699 33.0376 29.382 32.421C29.794 31.8043 30.3797 31.3236 31.0649 31.0398C31.7502 30.756 32.5042 30.6817 33.2316 30.8264C33.959 30.9711 34.6272 31.3282 35.1516 31.8527C35.6761 32.3771 36.0332 33.0453 36.1779 33.7728C36.3226 34.5002 36.2484 35.2542 35.9646 35.9394C35.6807 36.6246 35.2001 37.2103 34.5834 37.6224C33.9667 38.0344 33.2417 38.2543 32.5 38.2543C31.5054 38.2543 30.5516 37.8593 29.8483 37.156C29.1451 36.4527 28.75 35.4989 28.75 34.5043ZM13.2062 11.6918C13.2613 11.7872 13.3406 11.8664 13.4361 11.9212C13.5316 11.9761 13.6399 12.0048 13.75 12.0043H23.75C23.8601 12.0048 23.9684 11.9761 24.0639 11.9212C24.1594 11.8664 24.2387 11.7872 24.2937 11.6918C24.3486 11.5968 24.3775 11.4891 24.3775 11.3793C24.3775 11.2696 24.3486 11.1619 24.2937 11.0668L19.2937 2.31684C19.2392 2.22066 19.1602 2.14065 19.0647 2.08499C18.9691 2.02933 18.8606 2 18.75 2C18.6394 2 18.5309 2.02933 18.4353 2.08499C18.3398 2.14065 18.2608 2.22066 18.2062 2.31684L13.2062 11.0668C13.1514 11.1619 13.1225 11.2696 13.1225 11.3793C13.1225 11.4891 13.1514 11.5968 13.2062 11.6918ZM18.75 3.87934L22.675 10.7543H14.825L18.75 3.87934ZM25.8813 37.9918L25.3687 36.8481C21.5648 38.5392 17.2581 38.7114 13.3313 37.3293L12.9187 38.5106C14.7923 39.1692 16.764 39.5052 18.75 39.5043C21.2074 39.5109 23.6381 38.9953 25.8813 37.9918ZM35 22.0043C34.9995 23.0148 34.9075 24.023 34.725 25.0168L35.35 25.1293L35.975 25.2418C36.7825 20.9077 35.9244 16.4284 33.5721 12.6996C31.2199 8.97075 27.5469 6.26717 23.2875 5.12934L22.9625 6.33559C26.412 7.26145 29.4604 9.29798 31.6363 12.1302C33.8122 14.9625 34.9943 18.4328 35 22.0043ZM3.70625 28.1543C2.10788 24.2462 2.09346 19.8694 3.66602 15.9508C5.23859 12.0322 8.27466 8.8796 12.1313 7.16059L11.6187 6.01684C7.46956 7.87394 4.20396 11.2701 2.51085 15.4889C0.817751 19.7076 0.829546 24.4191 2.54375 28.6293L3.70625 28.1543Z" fill="#282828"/>
<path d="M19.0099 26.3584C17.6729 26.3584 16.5913 25.3168 16.5913 24.0084C16.5913 22.7001 17.6729 21.6501 19.0099 21.6501C20.347 21.6501 21.403 22.7001 21.403 24.0084C21.403 25.3168 20.347 26.3584 19.0099 26.3584Z" fill="#130F26"/>
<path opacity="0.4" d="M26.6917 25.9751C26.5299 25.7251 26.2999 25.4751 26.0019 25.3167C25.7634 25.2001 25.6101 25.0084 25.4739 24.7834C25.0395 24.0667 25.295 23.1251 26.0189 22.7001C26.8705 22.2251 27.1431 21.1667 26.6491 20.3417L26.0785 19.3584C25.5931 18.5334 24.5286 18.2417 23.6854 18.7251C22.936 19.1251 21.9737 18.8584 21.5393 18.1501C21.4031 17.9167 21.3264 17.6667 21.3435 17.4167C21.369 17.0917 21.2668 16.7834 21.1135 16.5334C20.7984 16.0167 20.2278 15.6667 19.5976 15.6667H18.3968C17.7751 15.6834 17.2045 16.0167 16.8894 16.5334C16.7276 16.7834 16.6339 17.0917 16.651 17.4167C16.668 17.6667 16.5913 17.9167 16.4551 18.1501C16.0208 18.8584 15.0584 19.1251 14.3175 18.7251C13.4659 18.2417 12.4098 18.5334 11.9159 19.3584L11.3453 20.3417C10.8599 21.1667 11.1324 22.2251 11.9755 22.7001C12.6994 23.1251 12.9549 24.0667 12.5291 24.7834C12.3843 25.0084 12.231 25.2001 11.9925 25.3167C11.703 25.4751 11.4475 25.7251 11.3112 25.9751C10.9961 26.4917 11.0132 27.1417 11.3283 27.6834L11.9159 28.6834C12.231 29.2167 12.8186 29.5501 13.4318 29.5501C13.7214 29.5501 14.062 29.4667 14.3345 29.3001C14.5474 29.1584 14.8029 29.1084 15.084 29.1084C15.9271 29.1084 16.6339 29.8001 16.651 30.6251C16.651 31.5834 17.4345 32.3334 18.4224 32.3334H19.5806C20.5599 32.3334 21.3435 31.5834 21.3435 30.6251C21.369 29.8001 22.0759 29.1084 22.919 29.1084C23.1915 29.1084 23.447 29.1584 23.6684 29.3001C23.9409 29.4667 24.2731 29.5501 24.5711 29.5501C25.1758 29.5501 25.7634 29.2167 26.0785 28.6834L26.6747 27.6834C26.9812 27.1251 27.0068 26.4917 26.6917 25.9751Z" fill="#282828"/>
<circle cx="32.5" cy="34.5" r="4.5" fill="#282828"/>
<rect x="1" y="31" width="7" height="7" fill="#282828"/>
<path d="M18.5 3L23.2631 11.25H13.7369L18.5 3Z" fill="#282828"/>
</svg>
