<svg width="30" height="30" viewBox="0 0 30 30" fill="none" xmlns="http://www.w3.org/2000/svg">
<g clip-path="url(#clip0)">
<path d="M25.6047 4.30448C19.7459 -1.49921 10.2484 -1.49781 4.39143 4.30767C-1.46554 10.1132 -1.46413 19.5242 4.39466 25.3279C10.2534 31.1316 19.7509 31.1302 25.6079 25.3247C28.4207 22.5366 30.0005 18.7554 29.9997 14.813C29.9988 10.8713 28.4179 7.09128 25.6047 4.30448ZM22.7166 20.6574C22.716 20.658 22.7153 20.6587 22.7146 20.6594V20.6544L21.9546 21.4025C20.9717 22.3888 19.5402 22.7946 18.1796 22.4727C16.8088 22.1091 15.5057 21.5304 14.3196 20.7585C13.2177 20.0606 12.1965 19.2449 11.2746 18.3258C10.4264 17.4914 9.66428 16.5752 8.9996 15.5909C8.27257 14.5317 7.69712 13.378 7.2896 12.1624C6.82243 10.7343 7.20956 9.16729 8.28962 8.11454L9.1796 7.23265C9.42704 6.98636 9.82911 6.98549 10.0776 7.23068C10.0782 7.23132 10.079 7.23196 10.0796 7.23265L12.8896 10.0171C13.1381 10.2623 13.139 10.6607 12.8916 10.9069C12.8909 10.9075 12.8903 10.9082 12.8896 10.9089L11.2396 12.5439C10.7661 13.0079 10.7066 13.7453 11.0996 14.278C11.6964 15.0895 12.3568 15.8532 13.0746 16.562C13.8749 17.3585 14.745 18.083 15.6746 18.7272C16.2117 19.0984 16.9399 19.0358 17.4046 18.5785L18.9996 16.9733C19.247 16.727 19.6491 16.7261 19.8976 16.9713C19.8982 16.9719 19.8989 16.9726 19.8996 16.9733L22.7146 19.7676C22.9632 20.0127 22.9641 20.4111 22.7166 20.6574Z" fill="#2237FF"/>
</g>
<defs>
<clipPath id="clip0">
<rect width="30" height="29.6071" fill="white" transform="translate(0 0.0905762)"/>
</clipPath>
</defs>
</svg>
