<svg width="40" height="40" viewBox="0 0 40 40" fill="none" xmlns="http://www.w3.org/2000/svg">
<rect width="40" height="40" rx="5" fill="#2237FF"/>
<path d="M32 13.5297C31.0596 13.9399 30.065 14.2124 29.0469 14.3391C30.1198 13.7025 30.922 12.6946 31.3016 11.5063C30.2969 12.1021 29.1977 12.5217 28.0516 12.7469C27.3488 11.9965 26.4367 11.4749 25.4336 11.2497C24.4305 11.0245 23.3829 11.1062 22.4268 11.4841C21.4708 11.862 20.6505 12.5188 20.0725 13.369C19.4946 14.2192 19.1857 15.2235 19.1859 16.2516C19.1859 16.6578 19.2203 17.0484 19.3047 17.4203C17.2658 17.3204 15.2709 16.7912 13.4505 15.8674C11.6301 14.9436 10.0251 13.646 8.74062 12.0594C8.08253 13.1873 7.87908 14.5236 8.17169 15.7963C8.46431 17.0689 9.23099 18.1822 10.3156 18.9094C9.50431 18.8876 8.71012 18.6711 8 18.2781V18.3344C8.00136 19.5179 8.41041 20.6648 9.15831 21.582C9.9062 22.4992 10.9473 23.1307 12.1062 23.3703C11.6678 23.4859 11.2159 23.5426 10.7625 23.5391C10.4369 23.5449 10.1115 23.5155 9.79219 23.4516C10.1233 24.4688 10.7617 25.3583 11.6194 25.9977C12.477 26.6371 13.5118 26.9949 14.5813 27.0219C12.7671 28.4407 10.5296 29.2104 8.22656 29.2078C7.80625 29.2078 7.40312 29.1891 7 29.1375C9.34357 30.6477 12.0745 31.4466 14.8625 31.4375C24.2937 31.4375 29.45 23.625 29.45 16.8531C29.45 16.6266 29.4422 16.4078 29.4312 16.1906C30.4421 15.4672 31.3126 14.5654 32 13.5297Z" fill="white"/>
</svg>
