<svg width="40" height="40" viewBox="0 0 40 40" fill="none" xmlns="http://www.w3.org/2000/svg">
<g clip-path="url(#clip0)">
<path d="M37.7921 7.0689e-08H2.20612C0.987549 0.000610422 -0.000305105 0.989075 7.0689e-08 2.20795V37.7939C0.000610422 39.0125 0.989075 40.0003 2.20795 40H37.7921C39.0112 40.0003 39.9997 39.0121 40 37.793C40 37.7927 40 37.7924 40 37.7921V2.20612C39.9994 0.987549 39.0109 -0.000305105 37.7921 7.0689e-08Z" fill="#2237FF"/>
<path d="M22.4258 33V21.6122H26.2649L26.84 17.1549H22.4258V14.316C22.4258 13.0284 22.7833 12.1511 24.6296 12.1511H26.9694V8.17524C26.5623 8.12109 25.1656 8 23.5404 8C20.147 8 17.8247 10.0705 17.8247 13.8745V17.1549H14V21.6122H17.8247V33H22.4258Z" fill="white"/>
</g>
<defs>
<clipPath id="clip0">
<rect width="40" height="40" rx="5" fill="white"/>
</clipPath>
</defs>
</svg>
