<svg width="40" height="40" viewBox="0 0 40 40" fill="none" xmlns="http://www.w3.org/2000/svg">
<rect width="40" height="40" rx="5" fill="#2237FF"/>
<path d="M19.6146 24.0312L15.5729 28.0729C15.0836 28.5452 14.4301 28.8091 13.75 28.8091C13.0699 28.8091 12.4164 28.5452 11.9271 28.0729C11.6871 27.8339 11.4967 27.5498 11.3667 27.237C11.2368 26.9241 11.1699 26.5887 11.1699 26.25C11.1699 25.9113 11.2368 25.5759 11.3667 25.263C11.4967 24.9502 11.6871 24.6661 11.9271 24.4271L15.9687 20.3854C16.1649 20.1893 16.2751 19.9232 16.2751 19.6458C16.2751 19.3684 16.1649 19.1024 15.9687 18.9062C15.7726 18.7101 15.5066 18.5999 15.2292 18.5999C14.9518 18.5999 14.6857 18.7101 14.4896 18.9062L10.4479 22.9583C9.6337 23.8446 9.19335 25.0111 9.21883 26.2143C9.2443 27.4175 9.73363 28.5644 10.5846 29.4154C11.4356 30.2664 12.5825 30.7557 13.7857 30.7812C14.9889 30.8066 16.1554 30.3663 17.0417 29.5521L21.0938 25.5104C21.2899 25.3143 21.4001 25.0482 21.4001 24.7708C21.4001 24.4934 21.2899 24.2274 21.0938 24.0312C20.8976 23.8351 20.6316 23.7249 20.3542 23.7249C20.0768 23.7249 19.8107 23.8351 19.6146 24.0312ZM28.5521 11.4479C27.6758 10.5771 26.4906 10.0883 25.2552 10.0883C24.0198 10.0883 22.8346 10.5771 21.9583 11.4479L17.9062 15.4896C17.8091 15.5867 17.7321 15.702 17.6795 15.8289C17.627 15.9558 17.5999 16.0918 17.5999 16.2292C17.5999 16.3665 17.627 16.5025 17.6795 16.6294C17.7321 16.7563 17.8091 16.8716 17.9062 16.9687C18.0034 17.0659 18.1187 17.1429 18.2456 17.1955C18.3725 17.248 18.5085 17.2751 18.6458 17.2751C18.7832 17.2751 18.9192 17.248 19.0461 17.1955C19.173 17.1429 19.2883 17.0659 19.3854 16.9687L23.4271 12.9271C23.9164 12.4548 24.5699 12.1909 25.25 12.1909C25.9301 12.1909 26.5836 12.4548 27.0729 12.9271C27.3129 13.1661 27.5033 13.4502 27.6333 13.763C27.7632 14.0759 27.8301 14.4113 27.8301 14.75C27.8301 15.0887 27.7632 15.4241 27.6333 15.737C27.5033 16.0498 27.3129 16.3339 27.0729 16.5729L23.0312 20.6146C22.9336 20.7114 22.8561 20.8266 22.8032 20.9536C22.7504 21.0805 22.7231 21.2167 22.7231 21.3542C22.7231 21.4917 22.7504 21.6278 22.8032 21.7548C22.8561 21.8817 22.9336 21.9969 23.0312 22.0937C23.1281 22.1914 23.2433 22.2689 23.3702 22.3218C23.4972 22.3746 23.6333 22.4019 23.7708 22.4019C23.9083 22.4019 24.0445 22.3746 24.1714 22.3218C24.2984 22.2689 24.4136 22.1914 24.5104 22.0937L28.5521 18.0417C29.4229 17.1654 29.9117 15.9802 29.9117 14.7448C29.9117 13.5094 29.4229 12.3242 28.5521 11.4479ZM16.1979 23.8021C16.2952 23.8986 16.4107 23.975 16.5376 24.0268C16.6645 24.0787 16.8004 24.105 16.9375 24.1042C17.0746 24.105 17.2105 24.0787 17.3374 24.0268C17.4643 23.975 17.5798 23.8986 17.6771 23.8021L22.8021 18.6771C22.9982 18.4809 23.1084 18.2149 23.1084 17.9375C23.1084 17.6601 22.9982 17.3941 22.8021 17.1979C22.6059 17.0018 22.3399 16.8916 22.0625 16.8916C21.7851 16.8916 21.5191 17.0018 21.3229 17.1979L16.1979 22.3229C16.1003 22.4197 16.0228 22.535 15.9699 22.6619C15.917 22.7888 15.8898 22.925 15.8898 23.0625C15.8898 23.2 15.917 23.3362 15.9699 23.4631C16.0228 23.59 16.1003 23.7052 16.1979 23.8021Z" fill="white"/>
</svg>
