<svg width="40" height="40" viewBox="0 0 40 40" fill="none" xmlns="http://www.w3.org/2000/svg">
<rect width="40" height="40" rx="5" fill="#2237FF"/>
<path d="M17.9095 29.2114C17.9095 29.0526 17.8745 28.8956 17.8071 28.7518C17.7396 28.6079 17.6414 28.4806 17.5193 28.379C17.3972 28.2773 17.2542 28.2038 17.1005 28.1635C16.9468 28.1233 16.7861 28.1173 16.6299 28.1461C15.2117 28.4063 13.4212 28.4455 12.9451 27.1083C12.53 26.0726 11.8423 25.1686 10.9551 24.492C10.8918 24.4576 10.8315 24.4179 10.7747 24.3735C10.6971 24.1687 10.5591 23.9922 10.3792 23.8674C10.1992 23.7425 9.98554 23.6752 9.76649 23.6742H9.7612C9.47477 23.6741 9.19996 23.7875 8.99693 23.9895C8.79389 24.1916 8.67917 24.4658 8.67787 24.7523C8.67364 25.6356 9.55645 26.2016 9.9146 26.3931C10.3369 26.8175 10.6764 27.3169 10.9154 27.8658C11.31 28.9745 12.4568 30.6566 15.7534 30.4398C15.7545 30.4779 15.7555 30.5138 15.756 30.5466L15.7608 30.8365C15.7608 31.1238 15.8749 31.3994 16.0781 31.6025C16.2813 31.8057 16.5568 31.9198 16.8441 31.9198C17.1314 31.9198 17.407 31.8057 17.6102 31.6025C17.8133 31.3994 17.9275 31.1238 17.9275 30.8365L17.9222 30.4916C17.9169 30.2863 17.9095 29.989 17.9095 29.2114ZM29.4654 12.8249C29.4998 12.6895 29.5336 12.5393 29.5633 12.37C29.7385 11.1627 29.5857 9.93056 29.121 8.8026C29.0624 8.65556 28.9723 8.52311 28.8571 8.41456C28.7419 8.306 28.6043 8.22397 28.454 8.1742C28.0683 8.04407 26.6444 7.78804 23.9212 9.52836C21.6577 8.99568 19.3013 8.99568 17.0377 9.52836C14.3257 7.81353 12.9091 8.04623 12.5272 8.16895C12.3732 8.21671 12.2319 8.29831 12.1135 8.40778C11.9952 8.51725 11.9028 8.65182 11.8432 8.80162C11.3691 9.95123 11.218 11.2085 11.4063 12.4378C11.4328 12.5764 11.4613 12.7044 11.4909 12.8218C10.5935 14.0172 10.1154 15.4753 10.131 16.97C10.128 17.3035 10.1434 17.6369 10.177 17.9687C10.5388 22.9548 13.7888 24.4518 16.0533 24.9659C16.0062 25.1013 15.9634 25.2463 15.9253 25.3997C15.8574 25.6784 15.9028 25.9727 16.0516 26.218C16.2004 26.4633 16.4404 26.6396 16.7189 26.7082C16.9975 26.7768 17.2919 26.7322 17.5376 26.5841C17.7833 26.4359 17.9602 26.1964 18.0296 25.9181C18.0985 25.5571 18.2752 25.2255 18.5363 24.967C18.6942 24.8287 18.8085 24.6476 18.8654 24.4456C18.9222 24.2435 18.9191 24.0294 18.8565 23.8291C18.7938 23.6288 18.6743 23.451 18.5125 23.3174C18.3506 23.1838 18.1535 23.1 17.9449 23.0764C14.203 22.649 12.5785 21.1245 12.3341 17.7698C12.3071 17.5041 12.2949 17.2371 12.2976 16.97C12.2802 15.9047 12.6322 14.8662 13.2937 14.031C13.3601 13.944 13.4309 13.8603 13.5058 13.7803C13.6384 13.6319 13.7276 13.4498 13.7635 13.254C13.7995 13.0582 13.7807 12.8564 13.7095 12.6705C13.6364 12.475 13.5801 12.2736 13.5412 12.0685C13.453 11.4854 13.4819 10.8905 13.6264 10.3187C14.568 10.5846 15.4541 11.0175 16.2426 11.5967C16.373 11.6835 16.5206 11.7413 16.6753 11.7662C16.83 11.791 16.9882 11.7823 17.1393 11.7406C19.3288 11.1464 21.6372 11.1467 23.8265 11.7417C23.9784 11.7833 24.1374 11.7915 24.2928 11.7658C24.4481 11.74 24.596 11.6809 24.7263 11.5925C25.5111 11.0109 26.3936 10.5742 27.332 10.3029C27.4758 10.8609 27.508 11.4419 27.4267 12.0125C27.3875 12.2373 27.3261 12.4577 27.2437 12.6705C27.1724 12.8564 27.1537 13.0583 27.1896 13.254C27.2255 13.4498 27.3147 13.6319 27.4473 13.7803C27.5309 13.8745 27.6145 13.976 27.6896 14.0712C28.3464 14.8923 28.6924 15.9188 28.6666 16.97C28.6686 17.2512 28.655 17.5324 28.6259 17.8121C28.3873 21.1224 26.7565 22.648 22.9971 23.0764C22.7885 23.1002 22.5913 23.184 22.4295 23.3178C22.2677 23.4515 22.1482 23.6294 22.0856 23.8298C22.0231 24.0302 22.02 24.2444 22.077 24.4465C22.1339 24.6486 22.2483 24.8298 22.4063 24.968C22.6756 25.2335 22.8527 25.5783 22.9114 25.9519C22.9846 26.2419 23.0183 26.5405 23.0114 26.8395V29.368C23.0008 30.0694 23.0008 30.5952 23.0008 30.8364C23.0008 31.1238 23.1149 31.3993 23.3181 31.6025C23.5213 31.8056 23.7968 31.9198 24.0841 31.9198C24.3715 31.9198 24.647 31.8056 24.8502 31.6025C25.0533 31.3993 25.1675 31.1238 25.1675 30.8364C25.1675 30.6016 25.1675 30.0864 25.1781 29.3849V26.8395C25.1868 26.3605 25.1304 25.8825 25.0104 25.4187C24.9761 25.2665 24.934 25.116 24.8845 24.968C26.5325 24.6943 28.0299 23.8446 29.1101 22.5702C30.1904 21.2958 30.7834 19.6795 30.7836 18.0089C30.8193 17.6638 30.8359 17.3169 30.8333 16.97C30.8573 15.4737 30.3753 14.0131 29.4654 12.825L29.4654 12.8249Z" fill="#F8F8F8"/>
</svg>
