<svg width="30" height="31" viewBox="0 0 30 31" fill="none" xmlns="http://www.w3.org/2000/svg">
<g clip-path="url(#clip0)">
<path d="M15.002 1C10.7163 1 7.21289 4.50339 7.21289 8.78913C7.21289 13.0749 10.7163 16.5783 15.002 16.5783C19.2877 16.5783 22.7911 13.0749 22.7911 8.78913C22.7911 4.50339 19.2877 1 15.002 1Z" fill="#2237FF"/>
<path d="M28.3695 22.803C28.1654 22.2928 27.8933 21.8166 27.5872 21.3744C26.0225 19.0615 23.6076 17.5309 20.8865 17.1567C20.5464 17.1228 20.1723 17.1907 19.9001 17.3948C18.4716 18.4492 16.7709 18.9935 15.0022 18.9935C13.2334 18.9935 11.5328 18.4492 10.1042 17.3948C9.83205 17.1907 9.4579 17.0887 9.11779 17.1567C6.3967 17.5309 3.94774 19.0615 2.41714 21.3744C2.11102 21.8166 1.83889 22.3268 1.63485 22.803C1.53283 23.0071 1.56681 23.2452 1.66883 23.4493C1.94097 23.9255 2.28107 24.4017 2.58719 24.8098C3.06336 25.4561 3.57359 26.0343 4.15184 26.5785C4.62801 27.0547 5.17222 27.4969 5.71649 27.9391C8.40353 29.9459 11.6348 31.0003 14.9682 31.0003C18.3015 31.0003 21.5328 29.9458 24.2199 27.9391C24.7641 27.5309 25.3083 27.0547 25.7845 26.5785C26.3287 26.0343 26.8729 25.4561 27.3492 24.8098C27.6893 24.3677 27.9955 23.9255 28.2675 23.4493C28.4375 23.2452 28.4715 23.007 28.3695 22.803Z" fill="#2237FF"/>
</g>
<defs>
<clipPath id="clip0">
<rect width="30" height="29.6071" fill="white" transform="translate(0 0.93457)"/>
</clipPath>
</defs>
</svg>
